<?xml version="1.0" encoding="UTF-8" standalone="no"?>
<svg
   width="3212.2339pt"
   height="240.38522pt"
   version="1.1"
   viewBox="0 0 3212.2339 240.38522"
   id="svg342"
   sodipodi:docname="chalet.svg"
   inkscape:version="1.2 (dc2aedaf03, 2022-05-15)"
   xmlns:inkscape="http://www.inkscape.org/namespaces/inkscape"
   xmlns:sodipodi="http://sodipodi.sourceforge.net/DTD/sodipodi-0.dtd"
   xmlns="http://www.w3.org/2000/svg"
   xmlns:svg="http://www.w3.org/2000/svg">
  <sodipodi:namedview
     id="namedview344"
     pagecolor="#ffffff"
     bordercolor="#666666"
     borderopacity="1.0"
     inkscape:showpageshadow="2"
     inkscape:pageopacity="0.0"
     inkscape:pagecheckerboard="0"
     inkscape:deskcolor="#d1d1d1"
     inkscape:document-units="pt"
     showgrid="false"
     inkscape:zoom="0.17773894"
     inkscape:cx="1502.2032"
     inkscape:cy="506.36063"
     inkscape:window-width="1280"
     inkscape:window-height="651"
     inkscape:window-x="0"
     inkscape:window-y="0"
     inkscape:window-maximized="1"
     inkscape:current-layer="g340" />
  <defs
     id="defs250">
    <rect
       x="3492.8113"
       y="29.295952"
       width="60.745693"
       height="88.679039"
       id="rect1476" />
    <rect
       x="3505.0747"
       y="37.07597"
       width="57.558964"
       height="86.591187"
       id="rect1470" />
    <rect
       x="-880.23181"
       y="147.26472"
       width="1129.8876"
       height="132.49841"
       id="rect790" />
    <symbol
       id="t"
       overflow="visible">
      <path
         d="m 27.188,-1.625 c -1.4062,0.73047 -2.8711,1.2773 -4.3906,1.6406 -1.5117,0.375 -3.0938,0.5625 -4.75,0.5625 -4.9297,0 -8.8359,-1.375 -11.719,-4.125 -2.875,-2.7578 -4.3125,-6.5 -4.3125,-11.219 0,-4.7266 1.4375,-8.4688 4.3125,-11.219 2.8828,-2.75 6.7891,-4.125 11.719,-4.125 1.6562,0 3.2383,0.1875 4.75,0.5625 1.5195,0.36719 2.9844,0.90625 4.3906,1.625 v 6.125 c -1.418,-0.95703 -2.8125,-1.6602 -4.1875,-2.1094 -1.375,-0.45703 -2.8203,-0.6875 -4.3281,-0.6875 -2.7305,0 -4.875,0.875 -6.4375,2.625 -1.5547,1.7422 -2.3281,4.1406 -2.3281,7.2031 0,3.0547 0.77344,5.4531 2.3281,7.2031 1.5625,1.7422 3.707,2.6094 6.4375,2.6094 1.5078,0 2.9531,-0.22266 4.3281,-0.67188 1.375,-0.44531 2.7695,-1.1562 4.1875,-2.125 z"
         id="path190" />
    </symbol>
    <symbol
       id="d"
       overflow="visible">
      <path
         d="m 19.891,-16.141 c -0.61719,-0.28906 -1.2305,-0.50391 -1.8438,-0.64062 -0.61719,-0.14453 -1.2344,-0.21875 -1.8594,-0.21875 -1.8242,0 -3.2305,0.58594 -4.2188,1.75 -0.98047,1.168 -1.4688,2.8438 -1.4688,5.0312 v 10.219 H 3.4064 v -22.188 h 7.0938 v 3.6406 c 0.91406,-1.4453 1.9609,-2.5039 3.1406,-3.1719 1.1875,-0.66406 2.6016,-1 4.25,-1 0.23828,0 0.49219,0.01172 0.76562,0.03125 0.28125,0.01172 0.6875,0.05469 1.2188,0.125 z"
         id="path193" />
    </symbol>
    <symbol
       id="b"
       overflow="visible">
      <path
         d="m 25.562,-11.156 v 2.0156 H 8.968 c 0.17578,1.668 0.78125,2.918 1.8125,3.75 1.0312,0.83594 2.4688,1.25 4.3125,1.25 1.5,0 3.0312,-0.21875 4.5938,-0.65625 1.5625,-0.44531 3.1719,-1.1172 4.8281,-2.0156 v 5.4688 c -1.6797,0.63672 -3.3594,1.1172 -5.0469,1.4375 -1.6797,0.32031 -3.3555,0.48438 -5.0312,0.48438 -4.0117,0 -7.1328,-1.0195 -9.3594,-3.0625 -2.2188,-2.0391 -3.3281,-4.9062 -3.3281,-8.5938 0,-3.6133 1.0859,-6.457 3.2656,-8.5312 2.1875,-2.0703 5.1953,-3.1094 9.0312,-3.1094 3.4883,0 6.2812,1.0547 8.375,3.1562 2.0938,2.0938 3.1406,4.8984 3.1406,8.4062 z m -7.2969,-2.3594 c 0,-1.3438 -0.39844,-2.4258 -1.1875,-3.25 -0.78125,-0.83203 -1.8047,-1.25 -3.0625,-1.25 -1.375,0 -2.4961,0.39062 -3.3594,1.1719 -0.85547,0.77344 -1.3867,1.8828 -1.5938,3.3281 z"
         id="path196" />
    </symbol>
    <symbol
       id="l"
       overflow="visible">
      <path
         d="m 13.359,-9.9844 c -1.4805,0 -2.5938,0.25 -3.3438,0.75 -0.75,0.5 -1.125,1.2422 -1.125,2.2188 0,0.89844 0.30078,1.6016 0.90625,2.1094 0.60156,0.51172 1.4375,0.76562 2.5,0.76562 1.3438,0 2.4688,-0.47656 3.375,-1.4375 0.91406,-0.95703 1.375,-2.1562 1.375,-3.5938 v -0.8125 z m 10.828,-2.6719 V -3e-4 h -7.1406 v -3.2812 c -0.96094,1.3438 -2.0312,2.3242 -3.2188,2.9375 -1.1876,0.6133 -2.6367,0.92188 -4.3438,0.92188 -2.293,0 -4.1562,-0.67188 -5.5938,-2.0156 -1.4297,-1.3438 -2.1406,-3.082 -2.1406,-5.2188 0,-2.6016 0.89062,-4.5078 2.6719,-5.7188 1.7891,-1.2188 4.6016,-1.8281 8.4375,-1.8281 h 4.1875 v -0.5625 c 0,-1.1133 -0.44531,-1.9297 -1.3281,-2.4531 -0.88672,-0.53125 -2.2656,-0.79688 -4.1406,-0.79688 -1.5234,0 -2.9375,0.15625 -4.25,0.46875 -1.3047,0.30469 -2.5156,0.75781 -3.6406,1.3594 v -5.4062 c 1.5195,-0.375 3.0469,-0.65625 4.5781,-0.84375 1.5312,-0.1875 3.0625,-0.28125 4.5938,-0.28125 4,0 6.8828,0.79297 8.6562,2.375 1.7812,1.5742 2.6719,4.1367 2.6719,7.6875 z"
         id="path199" />
    </symbol>
    <symbol
       id="a"
       overflow="visible">
      <path
         d="m 11.156,-28.484 v 6.2969 h 7.3125 v 5.0625 H 11.156 v 9.4219 c 0,1.0312 0.20312,1.7305 0.60938,2.0938 0.41406,0.35547 1.2266,0.53125 2.4375,0.53125 h 3.6562 v 5.0781 h -6.0938 c -2.8047,0 -4.7891,-0.58203 -5.9531,-1.75 -1.168,-1.1641 -1.75,-3.1484 -1.75,-5.9531 v -9.4219 h -3.5312 v -5.0625 h 3.5312 v -6.2969 z"
         id="path202" />
    </symbol>
    <symbol
       id="k"
       overflow="visible">
      <path
         d="m 18.5,-18.938 v -11.891 h 7.1406 V -0.001 H 18.5 v -3.2031 c -0.96875,1.3047 -2.043,2.2617 -3.2188,2.875 -1.1797,0.60156 -2.543,0.90625 -4.0938,0.90625 -2.7305,0 -4.9766,-1.082 -6.7344,-3.25 -1.75,-2.1758 -2.625,-4.9766 -2.625,-8.4062 0,-3.4141 0.875,-6.207 2.625,-8.375 1.7578,-2.1758 4.0039,-3.2656 6.7344,-3.2656 1.5391,0 2.8984,0.30859 4.0781,0.92188 1.1875,0.60547 2.2656,1.5586 3.2344,2.8594 z m -4.6719,14.359 c 1.5195,0 2.6758,-0.55078 3.4688,-1.6562 0.80078,-1.1133 1.2031,-2.7266 1.2031,-4.8438 0,-2.1133 -0.40234,-3.7227 -1.2031,-4.8281 -0.79297,-1.1133 -1.9492,-1.6719 -3.4688,-1.6719 -1.5,0 -2.6523,0.55859 -3.4531,1.6719 -0.80469,1.1055 -1.2031,2.7148 -1.2031,4.8281 0,2.1172 0.39844,3.7305 1.2031,4.8438 0.80078,1.1055 1.9531,1.6562 3.4531,1.6562 z"
         id="path205" />
    </symbol>
    <symbol
       id="j"
       overflow="visible">
      <path
         d="m 15.219,-4.5781 c 1.5195,0 2.6758,-0.55078 3.4688,-1.6562 0.80078,-1.1133 1.2031,-2.7266 1.2031,-4.8438 0,-2.1133 -0.40234,-3.7227 -1.2031,-4.8281 -0.79297,-1.1133 -1.9492,-1.6719 -3.4688,-1.6719 -1.5234,0 -2.6875,0.5625 -3.5,1.6875 -0.8125,1.1172 -1.2188,2.7188 -1.2188,4.8125 0,2.1055 0.40625,3.7148 1.2188,4.8281 0.8125,1.1172 1.9766,1.6719 3.5,1.6719 z m -4.7188,-14.359 c 0.97656,-1.3008 2.0625,-2.2539 3.25,-2.8594 1.1875,-0.61328 2.5547,-0.92188 4.1094,-0.92188 2.7266,0 4.9688,1.0898 6.7188,3.2656 1.7578,2.168 2.6406,4.9609 2.6406,8.375 0,3.4297 -0.88281,6.2305 -2.6406,8.4062 -1.75,2.168 -3.9922,3.25 -6.7188,3.25 -1.5547,0 -2.9219,-0.30859 -4.1094,-0.92188 -1.1875,-0.61329 -2.2734,-1.5664 -3.25,-2.8594 V 2.4e-4 H 3.4064 v -30.828 h 7.0938 z"
         id="path208" />
    </symbol>
    <symbol
       id="i"
       overflow="visible">
      <path
         d="m 0.5,-22.188 h 7.0938 l 5.9531,15.047 5.0781,-15.047 h 7.0938 L 16.3907,2.093 C 15.4532,4.5696 14.3595,6.3 13.1095,7.2805 11.8595,8.25706 10.2072,8.7493 8.1564,8.7493 H 4.0626 V 4.0931 h 2.2188 c 1.1953,0 2.0703,-0.19531 2.625,-0.57812 0.55078,-0.375 0.97656,-1.0586 1.2812,-2.0469 L 10.3751,0.8587 Z"
         id="path211" />
    </symbol>
    <symbol
       id="h"
       overflow="visible">
      <path
         d="m 0.20312,-29.578 h 7.6562 l 7.8594,21.828 7.8125,-21.828 h 7.6719 L 20.25012,0 h -9.0938 z"
         id="path214" />
    </symbol>
    <symbol
       id="g"
       overflow="visible">
      <path
         d="m 21.344,-21.5 v 5.7812 c -0.96875,-0.65625 -1.9375,-1.1406 -2.9062,-1.4531 -0.96875,-0.32031 -1.9766,-0.48438 -3.0156,-0.48438 -1.9922,0 -3.5391,0.57812 -4.6406,1.7344 -1.0938,1.1562 -1.6406,2.7734 -1.6406,4.8438 0,2.0742 0.54688,3.6875 1.6406,4.8438 1.1016,1.1562 2.6484,1.7344 4.6406,1.7344 1.1016,0 2.1562,-0.16016 3.1562,-0.48438 1,-0.33203 1.9219,-0.82031 2.7656,-1.4688 v 5.7969 c -1.1172,0.40625 -2.2461,0.71094 -3.3906,0.92188 -1.1367,0.20703 -2.2812,0.3125 -3.4375,0.3125 -4,0 -7.1328,-1.0234 -9.3906,-3.0781 -2.25,-2.0625 -3.375,-4.9219 -3.375,-8.5781 0,-3.6562 1.125,-6.5078 3.375,-8.5625 2.2578,-2.0508 5.3906,-3.0781 9.3906,-3.0781 1.1641,0 2.3125,0.10547 3.4375,0.3125 1.1328,0.19922 2.2656,0.5 3.3906,0.90625 z"
         id="path217" />
    </symbol>
    <symbol
       id="c"
       overflow="visible">
      <path
         d="m 13.969,-17.656 c -1.5742,0 -2.7734,0.57031 -3.5938,1.7031 -0.82422,1.125 -1.2344,2.75 -1.2344,4.875 0,2.125 0.41016,3.7578 1.2344,4.8906 0.82031,1.125 2.0195,1.6875 3.5938,1.6875 1.5391,0 2.7227,-0.5625 3.5469,-1.6875 0.82031,-1.1328 1.2344,-2.7656 1.2344,-4.8906 0,-2.125 -0.41406,-3.75 -1.2344,-4.875 -0.82422,-1.1328 -2.0078,-1.7031 -3.5469,-1.7031 z m 0,-5.0625 c 3.8125,0 6.7891,1.0312 8.9375,3.0938 2.1562,2.0547 3.2344,4.9023 3.2344,8.5469 0,3.6484 -1.0781,6.5 -3.2344,8.5625 -2.1484,2.0625 -5.125,3.0938 -8.9375,3.0938 -3.8359,0 -6.8281,-1.0312 -8.9844,-3.0938 -2.1563,-2.0626 -3.2344,-4.9141 -3.2344,-8.5625 0,-3.6445 1.0781,-6.4922 3.2344,-8.5469 2.1562,-2.0625 5.1484,-3.0938 8.9844,-3.0938 z"
         id="path220" />
    </symbol>
    <symbol
       id="s"
       overflow="visible">
      <path
         d="m 20.75,-21.5 v 5.3906 c -1.5234,-0.63281 -2.9922,-1.1094 -4.4062,-1.4219 -1.418,-0.32031 -2.75,-0.48438 -4,-0.48438 -1.3438,0 -2.3438,0.17188 -3,0.51562 -0.65625,0.33594 -0.98438,0.85156 -0.98438,1.5469 0,0.57422 0.24219,1.0117 0.73438,1.3125 0.5,0.30469 1.3906,0.52734 2.6719,0.67188 l 1.25,0.17188 c 3.6328,0.46875 6.0781,1.2344 7.3281,2.2969 1.2578,1.0547 1.8906,2.7109 1.8906,4.9688 0,2.3672 -0.875,4.1406 -2.625,5.3281 -1.7422,1.1875 -4.3398,1.7812 -7.7969,1.7812 C 10.3437,0.5781 8.8203,0.45701 7.25,0.21872 5.6875,-0.00784 4.082,-0.35159 2.4375,-0.81248 v -5.3906 c 1.4141,0.6875 2.8633,1.2031 4.3438,1.5469 1.4883,0.34375 3,0.51562 4.5312,0.51562 1.3828,0 2.4258,-0.19141 3.125,-0.57812 0.70703,-0.38281 1.0625,-0.95312 1.0625,-1.7031 0,-0.63281 -0.24609,-1.1016 -0.73438,-1.4062 -0.48047,-0.3125 -1.4375,-0.55469 -2.875,-0.73438 l -1.25,-0.15625 c -3.1562,-0.39453 -5.3711,-1.125 -6.6406,-2.1875 -1.2734,-1.0703 -1.9062,-2.7031 -1.9062,-4.8906 0,-2.3438 0.80469,-4.082 2.4219,-5.2188 1.6133,-1.1328 4.082,-1.7031 7.4062,-1.7031 1.3125,0 2.6875,0.10156 4.125,0.29688 1.4375,0.19922 3.0039,0.50781 4.7031,0.92188 z"
         id="path223" />
    </symbol>
    <symbol
       id="f"
       overflow="visible">
      <path
         d="m 3.7188,-29.578 h 12.672 c 3.7578,0 6.6445,0.83984 8.6562,2.5156 2.0195,1.668 3.0312,4.043 3.0312,7.125 0,3.1055 -1.0117,5.4961 -3.0312,7.1719 -2.0117,1.668 -4.8984,2.5 -8.6562,2.5 H 11.3596 V 5e-4 H 3.719 Z m 7.6406,5.5312 v 8.25 h 4.2188 c 1.4766,0 2.6172,-0.35938 3.4219,-1.0781 0.80078,-0.71875 1.2031,-1.7383 1.2031,-3.0625 0,-1.3125 -0.40234,-2.3203 -1.2031,-3.0312 -0.80469,-0.71875 -1.9453,-1.0781 -3.4219,-1.0781 z"
         id="path226" />
    </symbol>
    <symbol
       id="r"
       overflow="visible">
      <path
         d="M 3.4062,-22.188 H 10.5 V 0 H 3.4062 Z m 0,-8.6406 H 10.5 v 5.7812 H 3.4062 Z"
         id="path229" />
    </symbol>
    <symbol
       id="e"
       overflow="visible">
      <path
         d="M 25.719,-13.516 V 0 h -7.1406 v -10.344 c 0,-1.9141 -0.04297,-3.2344 -0.125,-3.9531 -0.08594,-0.72656 -0.23047,-1.2656 -0.4375,-1.6094 -0.28125,-0.46875 -0.66406,-0.82812 -1.1406,-1.0781 -0.46875,-0.25781 -1.0117,-0.39062 -1.625,-0.39062 -1.4805,0 -2.6406,0.57422 -3.4844,1.7188 -0.84375,1.1367 -1.2656,2.7148 -1.2656,4.7344 V -2e-5 H 3.4065 v -22.188 h 7.0938 v 3.25 c 1.0703,-1.3008 2.207,-2.2539 3.4062,-2.8594 1.207,-0.61328 2.5352,-0.92188 3.9844,-0.92188 2.5625,0 4.5039,0.78906 5.8281,2.3594 1.332,1.5625 2,3.8438 2,6.8438 z"
         id="path232" />
    </symbol>
    <symbol
       id="q"
       overflow="visible">
      <path
         d="m 18.016,-30.828 v 4.6562 h -3.9219 c -1.0117,0 -1.7148,0.18359 -2.1094,0.54688 -0.39844,0.36719 -0.59375,0.99609 -0.59375,1.8906 v 1.5469 h 6.0625 v 5.0625 h -6.0625 V 8e-5 h -7.0938 v -17.125 h -3.5312 v -5.0625 h 3.5312 v -1.5469 c 0,-2.4141 0.67188,-4.2031 2.0156,-5.3594 1.3516,-1.1562 3.4414,-1.7344 6.2656,-1.7344 z"
         id="path235" />
    </symbol>
    <symbol
       id="p"
       overflow="visible">
      <path
         d="m 23.969,-18.5 c 0.90625,-1.375 1.9727,-2.4219 3.2031,-3.1406 1.2383,-0.71875 2.5977,-1.0781 4.0781,-1.0781 2.5391,0 4.4766,0.78906 5.8125,2.3594 1.3438,1.5625 2.0156,3.8438 2.0156,6.8438 V 5e-4 h -7.1406 v -11.578 c 0.0078,-0.16406 0.01953,-0.34375 0.03125,-0.53125 0.0078,-0.1875 0.01563,-0.45312 0.01563,-0.79688 0,-1.5625 -0.23438,-2.6953 -0.70312,-3.4062 -0.46094,-0.70703 -1.2031,-1.0625 -2.2344,-1.0625 -1.3438,0 -2.3867,0.55859 -3.125,1.6719 -0.73047,1.1055 -1.1094,2.7109 -1.1406,4.8125 v 10.891 h -7.125 v -11.578 c 0,-2.4453 -0.21484,-4.0234 -0.64062,-4.7344 -0.41797,-0.70703 -1.168,-1.0625 -2.25,-1.0625 -1.3672,0 -2.418,0.55859 -3.1562,1.6719 -0.74219,1.1172 -1.1094,2.7109 -1.1094,4.7812 v 10.922 h -7.125 v -22.188 h 7.125 v 3.25 c 0.875,-1.2578 1.875,-2.2031 3,-2.8281 1.1328,-0.63281 2.3789,-0.95312 3.7344,-0.95312 1.5312,0 2.8828,0.37109 4.0625,1.1094 1.1758,0.74219 2.0664,1.7773 2.6719,3.1094 z"
         id="path238" />
    </symbol>
    <symbol
       id="o"
       overflow="visible">
      <path
         d="M 25.719,-13.516 V 0 h -7.1406 v -10.297 c 0,-1.9453 -0.04297,-3.2812 -0.125,-4 -0.08594,-0.72656 -0.23047,-1.2656 -0.4375,-1.6094 -0.28125,-0.46875 -0.66406,-0.82812 -1.1406,-1.0781 -0.46875,-0.25781 -1.0117,-0.39062 -1.625,-0.39062 -1.4805,0 -2.6406,0.57422 -3.4844,1.7188 -0.84375,1.1367 -1.2656,2.7148 -1.2656,4.7344 V 8e-5 H 3.4065 v -30.828 h 7.0938 v 11.891 c 1.0703,-1.3008 2.207,-2.2539 3.4062,-2.8594 1.207,-0.61328 2.5352,-0.92188 3.9844,-0.92188 2.5625,0 4.5039,0.78906 5.8281,2.3594 1.332,1.5625 2,3.8438 2,6.8438 z"
         id="path241" />
    </symbol>
    <symbol
       id="n"
       overflow="visible">
      <path
         d="M 3.7188,-29.578 H 12.25 L 23,-9.297 v -20.281 h 7.2344 V 0 H 21.7188 L 10.9528,-20.297 V 0 H 3.7184 Z"
         id="path244" />
    </symbol>
    <symbol
       id="m"
       overflow="visible">
      <path
         d="M 3.4062,-22.188 H 10.5 V -0.391 C 10.5,2.5778 9.78516,4.8434 8.3594,6.4059 6.9297,7.9684 4.8633,8.7497 2.1563,8.7497 h -3.5 V 4.0935 h 1.2188 c 1.3516,0 2.2812,-0.30469 2.7812,-0.90625 0.5,-0.60547 0.75,-1.7969 0.75,-3.5781 z m 0,-8.6406 H 10.5 v 5.7812 H 3.4062 Z"
         id="path247" />
    </symbol>
  </defs>
  <g
     id="g340"
     transform="translate(-90.2904,-35.17415)">
    <path
       d="m 198.9964,246.24171 h 45.10401 c 2.20152,0 3.98496,-1.78153 3.98496,-3.98496 v -35.47348 c 0,-2.20152 -1.78153,-3.98496 -3.98496,-3.98496 H 198.9964 c -2.20152,0 -3.98496,1.78153 -3.98496,3.98496 v 35.47348 c 0,2.20152 1.78344,3.98496 3.98496,3.98496 z m 41.11915,-7.96972 h -14.584 l 0.002,-27.50523 h 14.584 z m -37.13429,-27.50523 h 14.584 v 27.50523 h -14.584 z"
       id="path252"
       style="fill:#ffffff;stroke-width:0.490928" />
    <path
       d="M 256.70499,246.24171 H 301.809 c 2.20152,0 3.98496,-1.78153 3.98496,-3.98496 v -35.47348 c 0,-2.20152 -1.78153,-3.98496 -3.98496,-3.98496 h -45.10401 c -2.20152,0 -3.98496,1.78153 -3.98496,3.98496 v 35.47348 c 0,2.20152 1.78153,3.98496 3.98496,3.98496 z m 41.11915,-7.96972 h -14.584 l 0.002,-27.50523 h 14.584 z m -37.13429,-27.50523 h 14.584 v 27.50523 h -14.584 z"
       id="path254"
       style="fill:#ffffff;stroke-width:0.490928" />
    <path
       d="m 158.14628,145.02708 h 27.31916 c 2.20152,0 3.98496,-1.78153 3.98496,-3.98496 v -24.84734 c 0,-2.20152 -1.78153,-3.98496 -3.98496,-3.98496 h -27.31916 c -2.20152,0 -3.98496,1.78152 -3.98496,3.98496 v 24.84734 c 0,2.20152 1.78152,3.98496 3.98496,3.98496 z m 3.98304,-24.84734 h 19.34944 v 16.87958 h -19.34944 z"
       id="path256"
       style="fill:#ffffff;stroke-width:0.490928" />
    <path
       d="m 252.77756,145.02708 h 27.31917 c 2.20152,0 3.98496,-1.78153 3.98496,-3.98496 v -24.84734 c 0,-2.20152 -1.78153,-3.98496 -3.98496,-3.98496 h -27.31917 c -2.20151,0 -3.98496,1.78152 -3.98496,3.98496 v 24.84734 c 0,2.20152 1.78153,3.98496 3.98496,3.98496 z m 3.98305,-24.84734 h 19.34944 v 16.87958 h -19.34944 z"
       id="path258"
       style="fill:#ffffff;stroke-width:0.490928" />
    <path
       d="m 166.69824,245.60841 h 1.8295 c 2.20151,0 3.98496,-1.78152 3.98496,-3.98496 0,-2.20151 -1.78153,-3.98496 -3.98496,-3.98496 h -1.8295 c -2.20151,0 -3.98496,1.78153 -3.98496,3.98496 0.002,2.20344 1.78345,3.98496 3.98496,3.98496 z"
       id="path260"
       style="fill:#ffffff;stroke-width:0.490928" />
    <path
       d="m 341.30171,267.58235 h -18.28314 v -76.05457 h 14.17162 c 2.20151,0 3.98496,-1.78153 3.98496,-3.98496 v -31.38896 c 0,-2.20151 -1.78153,-3.98496 -3.98496,-3.98496 h -14.17162 v -21.71374 l 16.88694,-5.22004 c 1.45938,-0.45066 2.53329,-1.69714 2.76338,-3.20635 0.23013,-1.50921 -0.41997,-3.01459 -1.68182,-3.88334 L 221.37737,35.870801 c -1.36154,-0.937771 -3.17572,-0.926234 -4.54492,0.01918 L 151.79431,81.477063 V 67.100236 h 6.70018 c 3.56497,0 6.46651,-2.903398 6.46651,-6.466504 V 48.385568 c 0,-3.568801 -2.9034,-6.470431 -6.46651,-6.470431 l -44.2984,-0.0019 c -3.5688,0 -6.47043,2.903397 -6.47043,6.470431 v 12.248164 c 0,3.564972 2.9034,6.466504 6.47043,6.466504 h 6.69675 v 36.035104 l -26.337306,18.46135 c -1.350052,0.95117 -1.980993,2.63682 -1.576321,4.23999 0.404672,1.60318 1.754675,2.79024 3.392411,2.98391 l 18.812366,2.23411 v 21.11973 H 101.0487 c -2.201523,0 -3.984966,1.78153 -3.984966,3.98496 v 31.38895 c 0,2.20152 1.781529,3.98497 3.984966,3.98497 h 14.13529 v 76.05457 l -20.908629,-0.002 c -2.201518,0 -3.984961,1.78153 -3.984961,3.98496 0,2.20152 1.781529,3.98496 3.984961,3.98496 276.662499,0.004 -17.39898,0.01 247.030079,0 2.20152,0 3.98496,-1.78152 3.98496,-3.98496 0,-2.20343 -1.78153,-3.98496 -3.98496,-3.98496 z m -165.19729,-0.004 h -29.56319 v -58.14061 h 29.56319 z M 297.2851,183.561 v -7.72426 h 35.92219 v 7.72426 z m -49.45118,0 v -7.72426 h 41.48538 v 7.72426 z m -49.45609,0 v -7.72426 h 41.48538 v 7.72426 z m -49.45118,0 v -7.72426 h 41.48538 v 7.72426 z m 80.57602,-31.38895 h -20.76675 l 0.002,-43.88995 h 20.76675 z m 10.36103,7.96776 v 7.72819 h -41.48538 v -7.72819 z m 7.96973,0 h 41.48538 v 7.72819 h -41.48538 z m -57.42385,7.72819 h -41.48539 v -7.72819 h 41.48539 z m 142.80114,0 h -35.92218 v -7.72819 h 35.92218 z M 115.69524,49.883354 h 41.29932 v 9.249084 h -41.29932 z m 13.16865,17.216847 h 14.96349 v 19.961134 l -14.96349,10.48966 z m 90.27676,-23.092765 110.55699,76.049664 -9.95258,3.07787 -96.73246,-67.738249 -1.60126,-1.127612 c -1.36925,-0.972283 -3.20635,-0.968454 -4.58326,-0.0038 l -2.95705,2.0807 -95.72606,67.031311 -10.47051,-1.2446 z m -95.98625,85.897684 95.96661,-67.50261 95.93225,67.50261 v 22.268 h -17.76571 v -3.1009 c 0,-2.20152 -1.78152,-3.98496 -3.98496,-3.98496 -2.20151,0 -3.98496,1.78153 -3.98496,3.98496 v 3.1009 h -41.48538 v -3.1009 c 0,-2.20152 -1.78153,-3.98496 -3.98496,-3.98496 -2.20152,0 -3.98496,1.78153 -3.98496,3.98496 v 3.1009 h -2.39328 l 0.002,-47.8753 c 0,-2.20152 -1.78153,-3.98496 -3.98496,-3.98496 h -28.73451 c -2.20152,0 -3.98496,1.78153 -3.98496,3.98496 v 47.8753 h -2.38945 v -3.1009 c 0,-2.20152 -1.78153,-3.98496 -3.98496,-3.98496 -2.20152,0 -3.98496,1.78153 -3.98496,3.98496 v 3.1009 H 148.9238 v -3.1009 c 0,-2.20152 -1.78153,-3.98496 -3.98496,-3.98496 -2.20152,0 -3.98496,1.78153 -3.98496,3.98496 v 3.1009 h -17.80203 z m 17.80203,30.23625 v 7.72819 h -35.92218 v -7.72819 z m -35.92218,15.69645 h 35.92218 v 7.72426 h -35.92218 z m 210.01901,15.69251 v 76.04966 h -130.9796 v -62.12203 c 0,-2.20152 -1.78153,-3.98496 -3.98496,-3.98496 h -37.53292 c -2.20152,0 -3.98496,1.78153 -3.98496,3.98496 v 62.12203 h -15.42005 l 0.002,-76.04966 z"
       id="path262"
       style="fill:#ffffff;stroke-width:0.490928" />
    <text
       xml:space="preserve"
       transform="matrix(2.24255,0,0,2.24255,2466.1726,-294.09638)"
       id="text788"
       style="font-style:normal;font-weight:normal;font-size:96px;line-height:1.25;font-family:sans-serif;white-space:pre;shape-inside:url(#rect790);shape-padding:0.742364;display:inline;fill:#ffffff;fill-opacity:1;stroke:none"><tspan
         x="-879.49023"
         y="234.69581"
         id="tspan2578"><tspan
           style="font-family:Caladea;-inkscape-font-specification:Caladea"
           id="tspan2576">Chalet am Schützenacker</tspan></tspan></text>
    <text
       xml:space="preserve"
       transform="matrix(0.75,0,0,0.75,90.2904,35.17415)"
       id="text1468"
       style="font-style:normal;font-weight:normal;font-size:40px;line-height:1.25;font-family:sans-serif;white-space:pre;shape-inside:url(#rect1470);display:inline;fill:#ffffff;fill-opacity:1;stroke:none" />
    <text
       xml:space="preserve"
       transform="matrix(0.75,0,0,0.75,90.2904,35.17415)"
       id="text1474"
       style="font-style:normal;font-weight:normal;font-size:40px;line-height:1.25;font-family:sans-serif;white-space:pre;shape-inside:url(#rect1476);display:inline;fill:#ffffff;fill-opacity:1;stroke:none" />
  </g>
</svg>
